<svg id="Layer_1" data-name="Layer 1" xmlns="http://www.w3.org/2000/svg" viewBox="0 0 60 60"><defs><style>.cls-1{fill:#d7e9f4;}.cls-2{fill:#004884;}.cls-3{fill:#fff;}</style></defs><title>landingpage-icon</title><rect class="cls-1" x="1.49" y="8.21" width="57.2" height="46.87" rx="7.59"/><path class="cls-2" d="M55.66,56.5H4.52A4.47,4.47,0,0,1,.09,52V11.29a4.47,4.47,0,0,1,4.43-4.5H55.66a4.47,4.47,0,0,1,4.43,4.5V52A4.47,4.47,0,0,1,55.66,56.5ZM4.52,9.63a1.65,1.65,0,0,0-1.64,1.66V52a1.66,1.66,0,0,0,1.64,1.66H55.66A1.65,1.65,0,0,0,57.29,52V11.29a1.64,1.64,0,0,0-1.63-1.66Z"/><rect class="cls-3" x="11.01" y="23.54" width="8.74" height="8.88" rx="1.7"/><path class="cls-2" d="M19.07,33.43H11.69A1.69,1.69,0,0,1,10,31.73v-7.5a1.7,1.7,0,0,1,1.68-1.71h7.38a1.7,1.7,0,0,1,1.68,1.71v7.5A1.69,1.69,0,0,1,19.07,33.43ZM12,31.4h6.74V24.56H12Z"/><rect class="cls-3" x="25.89" y="23.54" width="8.74" height="8.88" rx="1.7"/><path class="cls-2" d="M34,33.43H26.57a1.69,1.69,0,0,1-1.68-1.7v-7.5a1.7,1.7,0,0,1,1.68-1.71H34a1.7,1.7,0,0,1,1.68,1.71v7.5A1.69,1.69,0,0,1,34,33.43Zm-7.06-2h6.74V24.56H26.89Z"/><rect class="cls-3" x="40.77" y="23.54" width="8.74" height="8.88" rx="1.7"/><path class="cls-2" d="M48.83,33.43H41.45a1.69,1.69,0,0,1-1.67-1.7v-7.5a1.69,1.69,0,0,1,1.67-1.71h7.38a1.7,1.7,0,0,1,1.68,1.71v7.5A1.69,1.69,0,0,1,48.83,33.43Zm-7.06-2h6.74V24.56H41.77Z"/><rect class="cls-3" x="11.01" y="38.69" width="8.74" height="8.88" rx="1.7"/><path class="cls-2" d="M19.07,48.58H11.69A1.69,1.69,0,0,1,10,46.88v-7.5a1.7,1.7,0,0,1,1.68-1.71h7.38a1.7,1.7,0,0,1,1.68,1.71v7.5A1.69,1.69,0,0,1,19.07,48.58Zm-7.06-2h6.74V39.7H12Z"/><rect class="cls-3" x="25.89" y="38.69" width="8.74" height="8.88" rx="1.7"/><path class="cls-2" d="M34,48.58H26.57a1.69,1.69,0,0,1-1.68-1.7v-7.5a1.7,1.7,0,0,1,1.68-1.71H34a1.7,1.7,0,0,1,1.68,1.71v7.5A1.69,1.69,0,0,1,34,48.58Zm-7.06-2h6.74V39.7H26.89Z"/><rect class="cls-3" x="40.77" y="38.69" width="8.74" height="8.88" rx="1.7"/><path class="cls-2" d="M48.83,48.58H41.45a1.69,1.69,0,0,1-1.67-1.7v-7.5a1.69,1.69,0,0,1,1.67-1.71h7.38a1.7,1.7,0,0,1,1.68,1.71v7.5A1.69,1.69,0,0,1,48.83,48.58Zm-7.06-2h6.74V39.7H41.77Z"/><rect class="cls-3" x="11.01" y="4.52" width="6.44" height="8.88" rx="1.7"/><path class="cls-2" d="M16.77,14.41H11.69A1.7,1.7,0,0,1,10,12.7V5.21A1.7,1.7,0,0,1,11.69,3.5h5.08a1.7,1.7,0,0,1,1.68,1.71V12.7A1.7,1.7,0,0,1,16.77,14.41Zm-4.76-2h4.45V5.53H12Z"/><rect class="cls-3" x="42.81" y="4.52" width="6.44" height="8.88" rx="1.7"/><path class="cls-2" d="M48.58,14.41H43.49a1.7,1.7,0,0,1-1.68-1.71V5.21A1.7,1.7,0,0,1,43.49,3.5h5.09a1.7,1.7,0,0,1,1.68,1.71V12.7A1.7,1.7,0,0,1,48.58,14.41Zm-4.77-2h4.45V5.53H43.81Z"/></svg>