<svg id="Layer_1" data-name="Layer 1" xmlns="http://www.w3.org/2000/svg" viewBox="0 0 60 60"><defs><style>.cls-1{fill:#fff;}.cls-2{fill:#d7e9f4;}.cls-3{fill:#004884;}</style></defs><title>landingpage-icon</title><polygon class="cls-1" points="17.53 36.91 30.49 14.5 45.72 37.98 24.29 39.23 17.53 36.91"/><polygon class="cls-2" points="20.11 5.76 40.08 5.76 58.5 36.69 48.56 54.24 11.12 54.24 1.61 36.47 20.11 5.76"/><path class="cls-3" d="M49.29,55.5H10.36L.16,36.43,19.4,4.5H40.79L60,36.68ZM11.87,53h36l9.23-16.27L39.36,7H20.82L3.06,36.51Z"/><rect class="cls-3" x="28.81" y="2.83" width="2.52" height="36.79" transform="translate(-6.7 19.66) rotate(-32.78)"/><rect class="cls-3" x="21.06" y="35.43" width="37.45" height="2.52"/><rect class="cls-3" x="1.58" y="36.2" width="37.67" height="2.52" transform="translate(-22.24 36.74) rotate(-60.45)"/><polygon class="cls-1" points="22.01 36 29.84 22.18 38.77 36 22.01 36"/></svg>