<svg id="Layer_1" data-name="Layer 1" xmlns="http://www.w3.org/2000/svg" viewBox="0 0 60 60"><defs><style>.cls-1{fill:#fff;}.cls-2{fill:#d7e9f4;}.cls-3{fill:#004884;}</style></defs><title>landingpage-icon</title><polygon class="cls-1" points="2.75 11.44 57.06 11.44 45.17 20.84 29.91 30.61 2.75 13.07 2.75 11.44"/><path class="cls-2" d="M29.9,30.61,2,12.3A2.49,2.49,0,0,0,1.31,14V46.09a2.45,2.45,0,0,0,2.42,2.48H56.08a2.45,2.45,0,0,0,2.42-2.48V14a2.56,2.56,0,0,0-.45-1.44Z"/><path class="cls-3" d="M56.08,50H3.73A3.88,3.88,0,0,1-.09,46.09V14A4,4,0,0,1,1,11.3l.79-.83L29.91,28.92,58.42,10.67l.76,1.09A3.92,3.92,0,0,1,59.9,14V46.09A3.88,3.88,0,0,1,56.08,50ZM2.71,14.47V46.09a1,1,0,0,0,1,1H56.08a1,1,0,0,0,1-1V14.89L29.9,32.31Z"/><rect class="cls-3" x="28.62" y="-18.31" width="2.87" height="59.71" transform="translate(18.39 41.55) rotate(-89.78)"/><rect class="cls-2" x="1.31" y="11.44" width="1.44" height="1.63"/><rect class="cls-3" x="-0.09" y="10.01" width="4.24" height="4.5"/><rect class="cls-2" x="57.06" y="11.84" width="1.44" height="1.63"/><rect class="cls-3" x="55.66" y="10.41" width="4.24" height="4.5"/></svg>