<svg id="Layer_1" data-name="Layer 1" xmlns="http://www.w3.org/2000/svg" viewBox="0 0 60 60"><defs><style>.cls-1{fill:#d7e9f4;}.cls-2{fill:#004884;}.cls-3{fill:#fff;}</style></defs><title>landingpage-icon</title><rect class="cls-1" x="1.4" y="18.11" width="57.2" height="32.56" rx="2.31"/><path class="cls-2" d="M57.68,52H2.32A2.27,2.27,0,0,1,0,49.79V19a2.27,2.27,0,0,1,2.32-2.21H57.68A2.27,2.27,0,0,1,60,19v30.8A2.27,2.27,0,0,1,57.68,52ZM2.8,49.34H57.2V19.44H2.8Z"/><rect class="cls-3" x="7.23" y="18.11" width="8.29" height="32.56" rx="2.31"/><path class="cls-2" d="M14.6,52H8.16a2.28,2.28,0,0,1-2.33-2.21V19a2.28,2.28,0,0,1,2.33-2.21H14.6A2.27,2.27,0,0,1,16.92,19v30.8A2.27,2.27,0,0,1,14.6,52Zm-6-2.66h5.48V19.44H8.64Z"/><rect class="cls-3" x="44.82" y="18.11" width="8.29" height="32.56" rx="2.31"/><path class="cls-2" d="M52.18,52H45.74a2.27,2.27,0,0,1-2.32-2.21V19a2.27,2.27,0,0,1,2.32-2.21h6.44A2.27,2.27,0,0,1,54.5,19v30.8A2.27,2.27,0,0,1,52.18,52Zm-6-2.66H51.7V19.44H46.22Z"/><path class="cls-2" d="M39.65,19.44H19.77a2.27,2.27,0,0,1-2.32-2.21v-7A2.27,2.27,0,0,1,19.77,8H39.65A2.27,2.27,0,0,1,42,10.21v7A2.27,2.27,0,0,1,39.65,19.44Zm-19.4-2.66H39.17V10.66H20.25Z"/></svg>