<svg id="Layer_1" data-name="Layer 1" xmlns="http://www.w3.org/2000/svg" xmlns:xlink="http://www.w3.org/1999/xlink" viewBox="0 0 60 60"><defs><style>.cls-1{fill:none;}.cls-2{fill:#fff;}.cls-3{clip-path:url(#clip-path);}.cls-4{fill:#004884;}.cls-5{fill:#d7e9f4;}</style><clipPath id="clip-path"><rect class="cls-1" y="2.78" width="46.89" height="46.35"/></clipPath></defs><title>landingpage-icon</title><circle class="cls-2" cx="23.45" cy="25.95" r="21.86"/><g id="Globe_2" data-name="Globe 2"><g class="cls-3"><g class="cls-3"><path class="cls-4" d="M28.65,46.2a19.51,19.51,0,0,0,1.42-1.35A20.79,20.79,0,0,0,34.28,38c.25-.65.47-1.32.67-2h7A21.21,21.21,0,0,1,28.65,46.2M4.89,36h7.05c.2.69.42,1.36.67,2a20.79,20.79,0,0,0,4.21,6.84,19.51,19.51,0,0,0,1.42,1.35A21.21,21.21,0,0,1,4.89,36M8.48,11.19a21.1,21.1,0,0,1,10.6-5.68,21,21,0,0,0-2.3,2.37,24.61,24.61,0,0,0-4.18,7.34,31.14,31.14,0,0,0-1,3.39h-8a20.84,20.84,0,0,1,4.85-7.42m34.78,7.42h-8a31.14,31.14,0,0,0-1-3.39,24.39,24.39,0,0,0-4.18-7.34,21,21,0,0,0-2.3-2.37,21.1,21.1,0,0,1,10.6,5.68,20.84,20.84,0,0,1,4.85,7.42M24.59,33.71V20.9h8.82a36.25,36.25,0,0,1,.46,5.83,32.63,32.63,0,0,1-.7,7Zm0,12.52V36h8c-.12.37-.25.74-.38,1.09a18.59,18.59,0,0,1-3.69,6.09,15.24,15.24,0,0,1-3.9,3M22.3,36V46.23a15.24,15.24,0,0,1-3.9-3,18.57,18.57,0,0,1-3.68-6.09c-.14-.35-.27-.72-.39-1.09Zm0-30.09v12.7H14a24.63,24.63,0,0,1,.77-2.52,22.15,22.15,0,0,1,3.72-6.64A18.52,18.52,0,0,1,22.3,5.91m6.14,3.54a22.15,22.15,0,0,1,3.72,6.64,24.63,24.63,0,0,1,.77,2.52H24.59V5.91a18.27,18.27,0,0,1,3.85,3.54M13,26.73a36.25,36.25,0,0,1,.46-5.83H22.3V33.71H13.72a33.29,33.29,0,0,1-.7-7M2.29,26a20.67,20.67,0,0,1,.62-5.05h8.25a37.7,37.7,0,0,0-.43,5.83,35.91,35.91,0,0,0,.65,7H3.79A20.77,20.77,0,0,1,2.29,26M43.1,33.71H35.51a35.91,35.91,0,0,0,.65-7,37.7,37.7,0,0,0-.43-5.83H44a20.84,20.84,0,0,1-.88,12.81M46.89,26A22.9,22.9,0,0,0,40,9.56,23.44,23.44,0,0,0,23.45,2.78h0A23.44,23.44,0,0,0,6.87,9.56a23,23,0,0,0,0,32.78,23.43,23.43,0,0,0,16.56,6.78h0A23.43,23.43,0,0,0,40,42.34,22.9,22.9,0,0,0,46.89,26"/></g></g></g><path class="cls-5" d="M58.53,50l-10-10.22L55,35.14a1.13,1.13,0,0,0,.47-1.06,1.16,1.16,0,0,0-.69-.93L25,20.67a1.14,1.14,0,0,0-1.5,1.49L35.75,51.57a1.11,1.11,0,0,0,.91.69,1.14,1.14,0,0,0,1.06-.45l4.67-6.28L52.91,55.75a1.17,1.17,0,0,0,.8.33h0a1.16,1.16,0,0,0,.81-.35l4-4.14a1.14,1.14,0,0,0,0-1.59"/><path class="cls-4" d="M53.71,57.22a2.29,2.29,0,0,1-1.59-.64l-9.59-9.32-3.89,5.23a2.29,2.29,0,0,1-4-.48L22.48,22.6a2.29,2.29,0,0,1,3-3L55.25,32.1a2.29,2.29,0,0,1,.45,4l-5.39,3.86,9,9.27a2.28,2.28,0,0,1,0,3.19l-4,4.13a2.27,2.27,0,0,1-1.59.7ZM42.25,43.8,53.71,54.93l4-4.13L46.81,39.62l7.55-5.41L24.59,21.72,36.8,51.13Z"/></svg>