<svg id="Layer_1" data-name="Layer 1" xmlns="http://www.w3.org/2000/svg" viewBox="0 0 108.49 17.01"><defs><style>.cls-1{fill:#004b88;}</style></defs><title>logo-singleline-en_1</title><path class="cls-1" d="M15.82,8c0,4.9-4.15,9-8.38,9l.47-1.31A7.66,7.66,0,0,1,0,8,8,8,0,0,1,7.91,0a8,8,0,0,1,7.91,8M76.06,12.7V8a2.36,2.36,0,0,0-.75-1.9,3.53,3.53,0,0,0-2.18-.63,5.67,5.67,0,0,0-2.69.63l.63,1.31a4.74,4.74,0,0,1,2-.52A1,1,0,0,1,74.16,8v.32l-1.23,0a4.57,4.57,0,0,0-2.37.59,1.91,1.91,0,0,0-.79,1.66,2.26,2.26,0,0,0,.59,1.66,2.11,2.11,0,0,0,1.58.6,3.26,3.26,0,0,0,1.35-.24,2.87,2.87,0,0,0,1-.83h.08l.35.95ZM74.16,10a1.35,1.35,0,0,1-.4,1,1.62,1.62,0,0,1-1.06.39c-.64,0-.91-.28-.91-.83a.85.85,0,0,1,.39-.83,2.39,2.39,0,0,1,1.23-.32l.75,0Zm7.55,1.78h.08l.36.91h1.46V2.89H81.67V5.14a6.77,6.77,0,0,0,.16,1.43h-.08a2.31,2.31,0,0,0-2-1,2.33,2.33,0,0,0-2,1,4.39,4.39,0,0,0-.71,2.69,4.51,4.51,0,0,0,.71,2.69,2.28,2.28,0,0,0,1.94,1,2.12,2.12,0,0,0,2-1m-2.33-1A2.76,2.76,0,0,1,79,9.26a2.83,2.83,0,0,1,.36-1.59,1.14,1.14,0,0,1,1-.55,1.39,1.39,0,0,1,1.15.47,2.9,2.9,0,0,1,.35,1.63v.19a3.14,3.14,0,0,1-.35,1.47,1.37,1.37,0,0,1-1.07.43,1.29,1.29,0,0,1-1.07-.51M89,12.7l2.69-7h-2l-1.34,4a5.47,5.47,0,0,0-.28,1.46h0a7.17,7.17,0,0,0-.28-1.46l-1.34-4h-2l2.69,7Zm4.39-7.91a1.17,1.17,0,0,0,.79-.24.85.85,0,0,0,.28-.71c0-.64-.36-.95-1-.95s-1,.31-1,.95.28,1,1,1m1,.87h-1.9v7h1.9Zm5.77,7.08a3.11,3.11,0,0,0,1-.4V10.68a4.41,4.41,0,0,1-1,.47,2.87,2.87,0,0,1-1,.16c-1,0-1.51-.67-1.51-2.05s.52-2.14,1.51-2.14a2.76,2.76,0,0,1,.79.12,4.22,4.22,0,0,1,.83.31l.55-1.5a4.94,4.94,0,0,0-2.17-.47,3.34,3.34,0,0,0-2.57,1,3.81,3.81,0,0,0-.91,2.73c0,2.41,1.1,3.59,3.28,3.59a7.29,7.29,0,0,0,1.22-.11m6.21-5.46a1.59,1.59,0,0,1,.36,1.11H104a1.83,1.83,0,0,1,.4-1.11,1.15,1.15,0,0,1,1-.4,1.37,1.37,0,0,1,1,.4M107,12.7a4.13,4.13,0,0,0,1.06-.36v-1.5a7,7,0,0,1-1.18.43,6,6,0,0,1-1.19.12,1.67,1.67,0,0,1-1.26-.47A1.73,1.73,0,0,1,104,9.65h4.51v-1a3.17,3.17,0,0,0-.83-2.33,3.17,3.17,0,0,0-2.33-.87,3.22,3.22,0,0,0-2.46,1A3.85,3.85,0,0,0,102,9.18a3.6,3.6,0,0,0,1,2.65,3.6,3.6,0,0,0,2.65.95A5.08,5.08,0,0,0,107,12.7m-82.55,0a3.11,3.11,0,0,0,.95-.4V10.68a4.41,4.41,0,0,1-.95.47,2.89,2.89,0,0,1-1,.16c-1,0-1.5-.67-1.5-2.05s.52-2.14,1.5-2.14a2.77,2.77,0,0,1,.8.12c.27.08.55.2.83.31l.55-1.5a5,5,0,0,0-2.18-.47,3.37,3.37,0,0,0-2.57,1A3.86,3.86,0,0,0,20,9.26c0,2.41,1.11,3.59,3.29,3.59a7.29,7.29,0,0,0,1.22-.11m3.29-7.95a1.18,1.18,0,0,0,.79-.24,1,1,0,0,0,.27-.71c0-.64-.35-.95-1-.95s-1,.31-1,.95.27,1,1,1m.94.87H26.82v7h1.89Zm4.08,5.45a.67.67,0,0,1-.24-.59V7.12h2V5.66h-2V4.15H31.32l-.55,1.51-1.07.63v.83h.91v3.4a2.45,2.45,0,0,0,.52,1.74,2.1,2.1,0,0,0,1.66.59,4.41,4.41,0,0,0,1.74-.31V11.07a3.89,3.89,0,0,1-1.19.24.93.93,0,0,1-.55-.2m4-6.32a1.15,1.15,0,0,0,.79-.24,1,1,0,0,0,.28-.71c0-.64-.35-.95-1-.95s-1,.31-1,.95.28,1,1,1m.95.87h-1.9v7h1.9Zm6.65,5.57H41.05l3.17-4.35V5.62H39V7.08h3L38.8,11.51v1.15h5.54Zm5-3.95a1.59,1.59,0,0,1,.36,1.11H47a1.89,1.89,0,0,1,.39-1.11,1.18,1.18,0,0,1,.95-.4,1.33,1.33,0,0,1,1,.4M50,12.7a4.21,4.21,0,0,0,1.07-.36v-1.5a7.11,7.11,0,0,1-1.19.43,5.91,5.91,0,0,1-1.18.12,1.7,1.7,0,0,1-1.27-.47A1.76,1.76,0,0,1,47,9.65H51.5v-1a3.17,3.17,0,0,0-.83-2.33,3.13,3.13,0,0,0-2.34-.87,3.18,3.18,0,0,0-2.45,1A3.85,3.85,0,0,0,45,9.18a3.6,3.6,0,0,0,1,2.65,3.56,3.56,0,0,0,2.65.95A5.22,5.22,0,0,0,50,12.7m9.26-4.59a2.71,2.71,0,0,0-.64-1.94A2.47,2.47,0,0,0,56.8,5.5a2.7,2.7,0,0,0-1.27.27,1.87,1.87,0,0,0-.87.8h-.12l-.24-.91H52.84v7h1.9V9.37a3.32,3.32,0,0,1,.36-1.78A1.3,1.3,0,0,1,56.24,7a1,1,0,0,1,.87.4,1.77,1.77,0,0,1,.28,1.14V12.7h1.9Zm6.4,1.62a2,2,0,0,0-.55-.67A6.13,6.13,0,0,0,64,8.42a5.31,5.31,0,0,1-1.18-.55.51.51,0,0,1-.28-.43c0-.32.28-.48.83-.48a2.64,2.64,0,0,1,.95.16c.32.08.63.24,1,.36l.59-1.39a6.07,6.07,0,0,0-2.45-.55,3.51,3.51,0,0,0-2.06.51,1.73,1.73,0,0,0-.71,1.47,2,2,0,0,0,.16.9,2.32,2.32,0,0,0,.55.68,5.85,5.85,0,0,0,1.19.63,10,10,0,0,1,.91.44,1.71,1.71,0,0,1,.48.31.61.61,0,0,1,.11.36c0,.39-.35.59-1,.59a4.39,4.39,0,0,1-1.19-.16,5.23,5.23,0,0,1-1.19-.43v1.58a6.58,6.58,0,0,0,1,.32,6.16,6.16,0,0,0,1.31.11,3.91,3.91,0,0,0,2.25-.55A1.92,1.92,0,0,0,66,10.64a4.1,4.1,0,0,0-.28-.91"/></svg>