<svg id="Layer_1" data-name="Layer 1" xmlns="http://www.w3.org/2000/svg" viewBox="0 0 60 60"><defs><style>.cls-1{fill:#d7e9f4;}.cls-2{fill:#004884;}.cls-3{fill:#fff;}</style></defs><title>landingpage-icon</title><circle class="cls-1" cx="30" cy="30" r="27.7"/><path class="cls-2" d="M30,59A29,29,0,1,1,59,30,29,29,0,0,1,30,59ZM30,3.61A26.39,26.39,0,1,0,56.39,30,26.42,26.42,0,0,0,30,3.61Z"/><circle class="cls-3" cx="30" cy="30.68" r="13.67"/><path class="cls-2" d="M30,45.65a15,15,0,1,1,15-15A15,15,0,0,1,30,45.65Zm0-27.33A12.37,12.37,0,1,0,42.37,30.68,12.37,12.37,0,0,0,30,18.32Z"/></svg>