<svg id="Layer_1" data-name="Layer 1" xmlns="http://www.w3.org/2000/svg" viewBox="0 0 60 60"><defs><style>.cls-1{fill:#d7e9f4;}.cls-2{fill:#004884;}.cls-3{fill:#fff;}.cls-4{fill:#004b88;}</style></defs><title>landingpage-icon</title><rect class="cls-1" x="1.34" y="16.79" width="57.23" height="32.97"/><path class="cls-1" d="M55.19,50.18H4.73A3.32,3.32,0,0,1,1.34,47V13.05A3.17,3.17,0,0,1,2.66,10.5a3.43,3.43,0,0,1,2.07-.68H55.19a3.3,3.3,0,0,1,3.38,3.23V47A3.31,3.31,0,0,1,55.19,50.18Z"/><path class="cls-2" d="M55.19,51.5H4.73A4.67,4.67,0,0,1,0,47V13.05a4.44,4.44,0,0,1,1.85-3.6A4.88,4.88,0,0,1,4.73,8.5H55.19A4.67,4.67,0,0,1,60,13.05V47A4.67,4.67,0,0,1,55.19,51.5ZM4.73,11.14a2,2,0,0,0-1.22.4,1.84,1.84,0,0,0-.78,1.51V47a2,2,0,0,0,2,1.91H55.19a2,2,0,0,0,2-1.91V13.05a2,2,0,0,0-2-1.91Z"/><path class="cls-3" d="M57.93,18.93V14.06a4.39,4.39,0,0,0-.67-2c-.54-.66-.3-1-2.19-.94s-22.08,0-22.08,0l-8.62,0L29.51,19h.91l-1.85.16"/><polygon class="cls-4" points="57.92 20.45 28.2 20.45 21.03 11.21 3.89 11.21 3.89 8.57 22.43 8.57 29.59 17.81 57.92 17.81 57.92 20.45"/></svg>