<svg id="Layer_1" data-name="Layer 1" xmlns="http://www.w3.org/2000/svg" viewBox="0 0 60 60"><defs><style>.cls-1{fill:#d7e9f4;}.cls-2{fill:#004884;}</style></defs><title>landingpage-icon</title><path class="cls-1" d="M37.53,28.4c-1.74,4.25-3.45,8.48-5.19,12.69a4.2,4.2,0,0,1-3.86,2.65,4.25,4.25,0,0,1-4.27-2.2A26.92,26.92,0,0,1,23,38.62q-3.57-8.71-7.13-17.44a.55.55,0,0,1-.1-.36h1.41c1.48,0,3,0,4.43,0a.45.45,0,0,1,.5.34q3,7.32,6,14.62l.1.21c.12,0,.12-.15.15-.23q2.55-6.22,5.08-12.46a4.55,4.55,0,0,1,8.35,0l5.49,13.39a2.44,2.44,0,0,0,.1.24c.09,0,.11-.07.14-.12A18.57,18.57,0,0,0,50.4,25,18.88,18.88,0,0,0,36.31,8.38a20.17,20.17,0,0,0-8.4-.31,22,22,0,0,0-14,8.24A21.27,21.27,0,0,0,9.24,28a22.35,22.35,0,0,0,28,23.49c.36-.09.36-.09.36.29,0,1.74,0,3.48,0,5.22,0,.25-.07.33-.32.38a28.25,28.25,0,0,1-7.89.5,27.75,27.75,0,0,1-15.92-6.44A27.46,27.46,0,0,1,4.07,36.25a27.18,27.18,0,0,1-.53-9.43A28.12,28.12,0,0,1,34.21,2.17,24.63,24.63,0,0,1,55.39,20.23a23.87,23.87,0,0,1-4.17,21.2,5.11,5.11,0,0,1-4.44,2.32A4.29,4.29,0,0,1,42.73,41q-2.53-6.13-5-12.27A.69.69,0,0,0,37.53,28.4Z"/><path class="cls-2" d="M31.51,59q-1.12,0-2.22-.09a28.9,28.9,0,0,1-16.51-6.68A28.84,28.84,0,0,1,2.5,26.71,29.24,29.24,0,0,1,23.66,2.06a28.7,28.7,0,0,1,10.66-.91A25.51,25.51,0,0,1,56.4,20,24.92,24.92,0,0,1,52.06,42a6.16,6.16,0,0,1-5.33,2.74,5.31,5.31,0,0,1-5-3.41L38.37,33.1l-.82-2L37,32.42c-1.21,3-2.47,6-3.71,9.06a5.24,5.24,0,0,1-4.75,3.29A5.29,5.29,0,0,1,23.3,42a16.68,16.68,0,0,1-1-2.22c-.1-.27-.21-.55-.32-.82L14.87,21.57a1.5,1.5,0,0,1-.16-.89l.12-.89H21.6a1.46,1.46,0,0,1,1.44,1Q25.59,27,28.16,33.31c.77-1.87,1.53-3.75,2.3-5.62l1.95-4.79a5.52,5.52,0,0,1,5.13-3.4h0a5.5,5.5,0,0,1,5.13,3.39l4,9.63.86,2.12a17.51,17.51,0,0,0,1.87-9.52A17.76,17.76,0,0,0,36.05,9.38a19.15,19.15,0,0,0-8-.29A21,21,0,0,0,14.71,17a20.36,20.36,0,0,0-4.44,11.14A21.32,21.32,0,0,0,37,50.49a1.33,1.33,0,0,1,1.21.15,1.3,1.3,0,0,1,.45,1.13v1.29c0,1.31,0,2.62,0,3.93a1.34,1.34,0,0,1-1.15,1.4A29.7,29.7,0,0,1,31.51,59ZM31.42,3.07A27.05,27.05,0,0,0,4.57,26.94a26.79,26.79,0,0,0,9.55,23.71,27.3,27.3,0,0,0,22.41,5.82V52.71A23.39,23.39,0,0,1,8.2,27.92a22.29,22.29,0,0,1,4.88-12.25A23,23,0,0,1,27.74,7.05a21.43,21.43,0,0,1,8.83.33A19.81,19.81,0,0,1,51.43,25a19.5,19.5,0,0,1-3.09,12.36,1.14,1.14,0,0,1-1.16.62l-.6-.08-.34-.8L44.7,33.3l-3.94-9.63a3.45,3.45,0,0,0-3.21-2.1h0a3.42,3.42,0,0,0-3.2,2.11l-2,4.78-3.12,7.63a1.22,1.22,0,0,1-.86.89l-.86.23-.39-.87a1.08,1.08,0,0,1-.08-.19l-.81-2q-2.52-6.15-5-12.32h-4q3.36,8.17,6.7,16.37c.12.28.23.57.34.86A15.08,15.08,0,0,0,25.12,41a3.23,3.23,0,0,0,3.29,1.67,3.13,3.13,0,0,0,3-2c1.25-3,2.5-6.08,3.71-9.05l2-5,1.1.92a1.51,1.51,0,0,1,.46.7l1.64,4,3.39,8.27a3.26,3.26,0,0,0,3.14,2.12,4.05,4.05,0,0,0,3.55-1.9,22.93,22.93,0,0,0,4-20.32A23.76,23.76,0,0,0,34.11,3.2,26.91,26.91,0,0,0,31.42,3.07Z"/></svg>